<?xml version="1.0" encoding="UTF-8"?>
<svg xmlns="http://www.w3.org/2000/svg" width="1600" height="1000" viewBox="0 0 1600 1000" font-family="Helvetica, Arial, sans-serif">

    <rect width="100%" height="100%" fill="#e9e4d8"/>
    <text x="112.00000000000001" y="100" fill="#1b1b1b" font-size="42" font-weight="700" letter-spacing="-1">A Field Guide to Rust</text>
    <text x="112.00000000000001" y="140" fill="#7a4a2a" font-size="22" letter-spacing="3">BY R. HOLM — PHOTOGRAPHY: A. BORISOV</text>
    <rect x="112.00000000000001" y="200" width="320" height="6" fill="#1b1b1b" opacity="0.85"/><rect x="112.00000000000001" y="224" width="320" height="6" fill="#1b1b1b" opacity="0.85"/><rect x="112.00000000000001" y="248" width="320" height="6" fill="#1b1b1b" opacity="0.85"/><rect x="112.00000000000001" y="272" width="320" height="6" fill="#1b1b1b" opacity="0.85"/><rect x="112.00000000000001" y="296" width="320" height="6" fill="#1b1b1b" opacity="0.85"/><rect x="112.00000000000001" y="320" width="320" height="6" fill="#1b1b1b" opacity="0.85"/><rect x="112.00000000000001" y="344" width="320" height="6" fill="#1b1b1b" opacity="0"/><rect x="112.00000000000001" y="368" width="320" height="6" fill="#1b1b1b" opacity="0.85"/><rect x="112.00000000000001" y="392" width="320" height="6" fill="#1b1b1b" opacity="0.85"/><rect x="112.00000000000001" y="416" width="320" height="6" fill="#1b1b1b" opacity="0.85"/><rect x="112.00000000000001" y="440" width="320" height="6" fill="#1b1b1b" opacity="0.85"/><rect x="112.00000000000001" y="464" width="320" height="6" fill="#1b1b1b" opacity="0.85"/><rect x="112.00000000000001" y="488" width="320" height="6" fill="#1b1b1b" opacity="0.85"/><rect x="112.00000000000001" y="512" width="320" height="6" fill="#1b1b1b" opacity="0"/><rect x="112.00000000000001" y="536" width="320" height="6" fill="#1b1b1b" opacity="0.85"/><rect x="112.00000000000001" y="560" width="320" height="6" fill="#1b1b1b" opacity="0.85"/><rect x="112.00000000000001" y="584" width="320" height="6" fill="#1b1b1b" opacity="0.85"/><rect x="112.00000000000001" y="608" width="320" height="6" fill="#1b1b1b" opacity="0.85"/><rect x="112.00000000000001" y="632" width="320" height="6" fill="#1b1b1b" opacity="0.85"/><rect x="112.00000000000001" y="656" width="320" height="6" fill="#1b1b1b" opacity="0.85"/><rect x="112.00000000000001" y="680" width="320" height="6" fill="#1b1b1b" opacity="0"/><rect x="112.00000000000001" y="704" width="320" height="6" fill="#1b1b1b" opacity="0.85"/>
    <rect x="640" y="200" width="480" height="480" fill="#7a4a2a"/>
    <text x="880" y="440" text-anchor="middle" fill="#e9e4d8" font-size="48" font-weight="700" letter-spacing="2">PLATE 04</text>
    <rect x="1168" y="200" width="320" height="6" fill="#1b1b1b" opacity="0.85"/><rect x="1168" y="224" width="320" height="6" fill="#1b1b1b" opacity="0.85"/><rect x="1168" y="248" width="320" height="6" fill="#1b1b1b" opacity="0.85"/><rect x="1168" y="272" width="320" height="6" fill="#1b1b1b" opacity="0.85"/><rect x="1168" y="296" width="320" height="6" fill="#1b1b1b" opacity="0.85"/><rect x="1168" y="320" width="320" height="6" fill="#1b1b1b" opacity="0.85"/><rect x="1168" y="344" width="320" height="6" fill="#1b1b1b" opacity="0"/><rect x="1168" y="368" width="320" height="6" fill="#1b1b1b" opacity="0.85"/><rect x="1168" y="392" width="320" height="6" fill="#1b1b1b" opacity="0.85"/><rect x="1168" y="416" width="320" height="6" fill="#1b1b1b" opacity="0.85"/><rect x="1168" y="440" width="320" height="6" fill="#1b1b1b" opacity="0.85"/><rect x="1168" y="464" width="320" height="6" fill="#1b1b1b" opacity="0.85"/><rect x="1168" y="488" width="320" height="6" fill="#1b1b1b" opacity="0.85"/><rect x="1168" y="512" width="320" height="6" fill="#1b1b1b" opacity="0"/><rect x="1168" y="536" width="320" height="6" fill="#1b1b1b" opacity="0.85"/><rect x="1168" y="560" width="320" height="6" fill="#1b1b1b" opacity="0.85"/><rect x="1168" y="584" width="320" height="6" fill="#1b1b1b" opacity="0.85"/><rect x="1168" y="608" width="320" height="6" fill="#1b1b1b" opacity="0.85"/><rect x="1168" y="632" width="320" height="6" fill="#1b1b1b" opacity="0.85"/><rect x="1168" y="656" width="320" height="6" fill="#1b1b1b" opacity="0.85"/><rect x="1168" y="680" width="320" height="6" fill="#1b1b1b" opacity="0"/><rect x="1168" y="704" width="320" height="6" fill="#1b1b1b" opacity="0.85"/>
  
</svg>
